<?xml version="1.0" encoding="UTF-8" ?>
<!DOCTYPE svg PUBLIC "-//W3C//DTD SVG 1.1//EN" "http://www.w3.org/Graphics/SVG/1.1/DTD/svg11.dtd">
<svg width="191pt" height="191pt" viewBox="0 0 191 191" version="1.1" xmlns="http://www.w3.org/2000/svg">
<g id="#ffffffff">
<path fill="#ffffff" opacity="1.00" d=" M 39.91 39.97 C 52.70 27.30 70.09 19.39 88.05 18.07 C 95.08 17.24 102.12 18.28 109.11 19.01 C 94.80 21.95 81.47 30.00 73.01 42.01 C 63.51 55.05 60.07 72.23 63.74 87.93 C 67.17 103.38 77.49 117.08 91.27 124.81 C 105.51 132.96 123.31 134.44 138.70 128.76 C 153.34 123.55 165.31 111.99 171.65 97.87 C 171.08 112.50 166.41 126.98 158.09 139.04 C 148.25 153.48 133.38 164.43 116.64 169.45 C 100.21 174.48 82.11 173.80 66.10 167.56 C 49.03 161.00 34.49 148.14 25.86 132.01 C 18.23 117.91 15.13 101.38 17.24 85.48 C 19.35 68.33 27.51 52.00 39.91 39.97 Z" />
<path fill="#ffffff" opacity="1.00" d=" M 110.55 30.82 C 120.17 29.10 130.39 30.19 139.17 34.60 C 151.84 40.72 161.26 53.08 163.74 66.94 C 166.34 80.40 162.35 94.93 153.19 105.14 C 144.71 114.87 131.91 120.64 119.00 120.47 C 104.96 120.49 91.14 113.47 82.87 102.13 C 75.29 92.11 72.52 78.88 74.82 66.59 C 78.06 48.88 92.85 34.08 110.55 30.82 Z" />
</g>
</svg>
